<?xml version="1.0" encoding="UTF-8"?>
<svg enable-background="new 0 0 2627.2 5040" version="1.1" viewBox="0 0 2627.2 5040" xml:space="preserve" xmlns="http://www.w3.org/2000/svg">
<style type="text/css">
	.st0{fill:#212529;}
	.st1{fill:#FFFFFF;}
</style>

	<rect class="st0" width="2627.2" height="5040"/>

		<path class="st1" d="M1626.2,712.3h212v1247.1H1670l-672.6-874v874H787.2V712.3h168.2l670.8,872.3V712.3z"/>


		<path class="st1" d="m1037.7 4212.4c-83.5-25.7-154.4-62.5-212.8-110.4l77-164.6c60.7 45.5 124.1 79.1 190.1 100.7 65.9 21.7 138 32.4 216.3 32.4 86.4 0 153.2-15.2 200.5-45.5 47.3-30.4 70.9-73 70.9-127.9 0-46.7-21.9-82.6-65.7-107.8-43.8-25.1-115.9-48.7-216.3-70.9-156.4-33.9-270.3-77.6-341.5-131.3-71.3-53.7-106.8-131.9-106.8-234.7 0-73.5 19.8-139 59.5-196.2s96.1-102.1 169-134.8 157.4-49 253.1-49c87.6 0 170.8 13.1 249.6 39.4 78.8 26.2 143.3 62.8 193.6 109.5l-75.3 164.6c-111-88.7-233.5-133.1-367.8-133.1-80.5 0-144.2 16.7-190.9 49.9-46.7 33.3-70.1 78.6-70.1 135.8 0 49 20.7 86.4 62.2 112.1 41.4 25.7 112.4 49.7 212.8 71.8 103.9 24.5 188.6 51 253.9 79.7 65.4 28.6 115.6 65.4 150.7 110.3 35 45 52.5 101.3 52.5 169 0 74.7-19.9 139.8-59.5 195.3-39.8 55.4-97 98.4-171.7 128.7-74.8 30.4-162.8 45.5-264.5 45.5-95.6 0-185.3-12.9-268.8-38.5z"/>


</svg>
